<svg width="79" height="196" viewBox="0 0 79 196" fill="none" xmlns="http://www.w3.org/2000/svg">
<g filter="url(#filter0_i)">
<path d="M77.5 162V24C76.3333 16.3333 67 1 39 1C11 1 2 16.3333 1 24V162C1 187.2 7 192 14 193.5C30.8014 197.1 51.5 196.5 65.5 193.5C78.5 190.714 77.5 170 77.5 162Z" fill="white"/>
</g>
<path d="M77.5 162V24C76.3333 16.3333 67 1 39 1C11 1 2 16.3333 1 24V162C1 187.2 7 192 14 193.5C30.8014 197.1 51.5 196.5 65.5 193.5C78.5 190.714 77.5 170 77.5 162Z" stroke="#F0F0F0"/>
<path d="M13.8974 80.3879L10.3178 63.7916C9.83652 61.5602 10.9281 59.2844 13.0659 58.484C18.594 56.4144 28.1821 53.8144 39.5 53.5C50.9306 53.1825 61.2271 55.9945 67.2382 58.3348C69.4681 59.203 70.5126 61.6572 69.8374 63.9529L64.7533 81.2389C64.0384 83.6694 61.6195 85.1724 59.1109 84.819C42.1399 82.4283 28.1717 83.2633 20.122 84.4894C17.305 84.9185 14.4982 83.1733 13.8974 80.3879Z" fill="black"/>
<path d="M16.1124 153.672L15.2016 168.177C15.0788 170.133 16.0981 172.002 17.886 172.804C22.21 174.743 29.3966 177.182 39.3415 177.477C49.5208 177.779 57.3794 175.065 62.1181 172.855C63.903 172.022 64.8943 170.125 64.7299 168.162L63.459 152.982C63.2129 150.043 60.4882 147.961 57.5649 148.354C43.6104 150.228 30.4635 149.625 22.5717 148.607C19.4149 148.2 16.3119 150.495 16.1124 153.672Z" fill="black"/>
<path d="M72.5187 160.832L73.9745 64.1914C73.986 63.4308 73.2766 63.0891 72.8758 63.7356C70.5505 67.4859 67.2815 79.7734 67.0179 109C66.7712 136.353 69.124 153.084 71.0734 161.053C71.3296 162.1 72.5025 161.91 72.5187 160.832Z" fill="black"/>
<path d="M6.48126 160.832L5.02548 64.1914C5.01402 63.4308 5.72336 63.0891 6.12421 63.7356C8.44951 67.4859 11.7185 79.7734 11.9821 109C12.2288 136.353 9.87597 153.084 7.92658 161.053C7.67044 162.1 6.49749 161.91 6.48126 160.832Z" fill="black"/>
<path d="M4.60557 20.5528C4.35858 21.0468 4.55881 21.6474 5.05279 21.8944C5.54676 22.1414 6.14744 21.9412 6.39443 21.4472L4.60557 20.5528ZM20.2545 9.46707C20.7886 9.32652 21.1076 8.77961 20.9671 8.24551C20.8265 7.71141 20.2796 7.39237 19.7455 7.53293L20.2545 9.46707ZM6.39443 21.4472C7.18026 19.8756 8.84206 17.3391 11.2309 14.9583C13.6197 12.5775 16.6797 10.4078 20.2545 9.46707L19.7455 7.53293C15.7203 8.5922 12.3636 11.0058 9.81909 13.5417C7.27461 16.0776 5.48641 18.7911 4.60557 20.5528L6.39443 21.4472Z" fill="black"/>
<path d="M73.3944 20.5528C73.6414 21.0468 73.4412 21.6474 72.9472 21.8944C72.4532 22.1414 71.8526 21.9412 71.6056 21.4472L73.3944 20.5528ZM57.7455 9.46707C57.2114 9.32652 56.8924 8.77961 57.0329 8.24551C57.1735 7.71141 57.7204 7.39237 58.2545 7.53293L57.7455 9.46707ZM71.6056 21.4472C70.8197 19.8756 69.1579 17.3391 66.7691 14.9583C64.3803 12.5775 61.3203 10.4078 57.7455 9.46707L58.2545 7.53293C62.2797 8.5922 65.6364 11.0058 68.1809 13.5417C70.7254 16.0776 72.5136 18.7911 73.3944 20.5528L71.6056 21.4472Z" fill="black"/>
<path d="M52.0858 8H27.2268C26.364 8 26.0005 7.07215 26.7299 6.61114C29.0456 5.14748 33.2751 3.5 39.5 3.5C45.6778 3.5 50.0707 5.12268 52.5593 6.57793C53.3283 7.02765 52.9767 8 52.0858 8Z" fill="black"/>
<path d="M25 3L11 61.5" stroke="url(#paint0_linear)" stroke-opacity="0.29" stroke-linecap="round"/>
<path d="M21 194.5L16 170.5" stroke="url(#paint1_linear)" stroke-opacity="0.29" stroke-linecap="round"/>
<path d="M59 194.5L64 170.5" stroke="url(#paint2_linear)" stroke-opacity="0.29" stroke-linecap="round"/>
<path d="M54 3.5L69.5 61.5" stroke="url(#paint3_linear)" stroke-opacity="0.29" stroke-linecap="round"/>
<defs>
<filter id="filter0_i" x="0.5" y="0.5" width="85.518" height="197.98" filterUnits="userSpaceOnUse" color-interpolation-filters="sRGB">
<feFlood flood-opacity="0" result="BackgroundImageFix"/>
<feBlend mode="normal" in="SourceGraphic" in2="BackgroundImageFix" result="shape"/>
<feColorMatrix in="SourceAlpha" type="matrix" values="0 0 0 0 0 0 0 0 0 0 0 0 0 0 0 0 0 0 127 0" result="hardAlpha"/>
<feOffset dx="8" dy="2"/>
<feGaussianBlur stdDeviation="5"/>
<feComposite in2="hardAlpha" operator="arithmetic" k2="-1" k3="1"/>
<feColorMatrix type="matrix" values="0 0 0 0 0 0 0 0 0 0 0 0 0 0 0 0 0 0 0.25 0"/>
<feBlend mode="normal" in2="shape" result="effect1_innerShadow"/>
</filter>
<linearGradient id="paint0_linear" x1="18" y1="3" x2="18" y2="61.5" gradientUnits="userSpaceOnUse">
<stop stop-opacity="0"/>
<stop offset="0.567708"/>
</linearGradient>
<linearGradient id="paint1_linear" x1="18.5" y1="194.5" x2="18.5" y2="170.5" gradientUnits="userSpaceOnUse">
<stop stop-opacity="0"/>
<stop offset="0.567708"/>
</linearGradient>
<linearGradient id="paint2_linear" x1="61.5" y1="194.5" x2="61.5" y2="170.5" gradientUnits="userSpaceOnUse">
<stop stop-opacity="0"/>
<stop offset="0.567708"/>
</linearGradient>
<linearGradient id="paint3_linear" x1="61.75" y1="3.5" x2="61.75" y2="61.5" gradientUnits="userSpaceOnUse">
<stop stop-opacity="0"/>
<stop offset="0.526042"/>
</linearGradient>
</defs>
</svg>
